<?xml version="1.0" encoding="UTF-8" standalone="no"?>
<!-- Created with Inkscape (http://www.inkscape.org/) -->

<svg
   xmlns:dc="http://purl.org/dc/elements/1.1/"
   xmlns:cc="http://creativecommons.org/ns#"
   xmlns:rdf="http://www.w3.org/1999/02/22-rdf-syntax-ns#"
   xmlns:svg="http://www.w3.org/2000/svg"
   xmlns="http://www.w3.org/2000/svg"
   xmlns:sodipodi="http://sodipodi.sourceforge.net/DTD/sodipodi-0.dtd"
   xmlns:inkscape="http://www.inkscape.org/namespaces/inkscape"
   width="700"
   height="1027.4727"
   id="svg12004"
   version="1.1"
   inkscape:version="0.48.5 r10040"
   sodipodi:docname="rocket.svg">
  <defs
     id="defs12006" />
  <sodipodi:namedview
     id="base"
     pagecolor="#ffffff"
     bordercolor="#666666"
     borderopacity="1.0"
     inkscape:pageopacity="0.0"
     inkscape:pageshadow="2"
     inkscape:zoom="0.35"
     inkscape:cx="631.471"
     inkscape:cy="382.92113"
     inkscape:document-units="px"
     inkscape:current-layer="layer1"
     showgrid="false"
     inkscape:window-width="1536"
     inkscape:window-height="814"
     inkscape:window-x="-8"
     inkscape:window-y="-8"
     inkscape:window-maximized="1"
     fit-margin-top="0"
     fit-margin-left="0"
     fit-margin-right="0"
     fit-margin-bottom="0" />
  <metadata
     id="metadata12009">
    <rdf:RDF>
      <cc:Work
         rdf:about="">
        <dc:format>image/svg+xml</dc:format>
        <dc:type
           rdf:resource="http://purl.org/dc/dcmitype/StillImage" />
      </cc:Work>
    </rdf:RDF>
  </metadata>
  <g
     inkscape:label="Layer 1"
     inkscape:groupmode="layer"
     id="layer1"
     transform="translate(-16.464335,-27.591032)">
    <path
       inkscape:connector-curvature="0"
       id="path8646"
       d="m 213.77734,896.91724 c 1.31319,97.17415 35.61872,123.85906 35.61872,123.85906 l 73.70052,0.4216 c 0,0 34.14223,-26.26329 35.45542,-123.43744 z"
       style="fill:#999999;stroke:none"
       sodipodi:nodetypes="cccc" />
    <path
       style="fill:#b3b3b3;stroke:#b3b3b3;stroke-width:0.36191893px;stroke-linecap:butt;stroke-linejoin:miter;stroke-opacity:1"
       d="m 260.26553,547.9372 c 0,0 -280.483219,247.72594 -239.536771,477.0261 L 260.26553,889.83998 z"
       id="path8640"
       inkscape:connector-curvature="0" />
    <path
       sodipodi:nodetypes="cccc"
       style="fill:#999999;stroke:none"
       d="m 365.78329,896.91724 c 1.31319,97.17415 35.6187,123.85906 35.6187,123.85906 l 73.70053,0.4216 c 0,0 34.14222,-26.26329 35.45541,-123.43744 z"
       id="path8648"
       inkscape:connector-curvature="0" />
    <path
       inkscape:connector-curvature="0"
       id="path8642"
       d="m 472.66315,547.9372 c 0,0 280.48322,247.72594 239.53676,477.0261 L 472.66315,889.83998 z"
       style="fill:#b3b3b3;stroke:#b3b3b3;stroke-width:0.36191893px;stroke-linecap:butt;stroke-linejoin:miter;stroke-opacity:1" />
    <path
       inkscape:connector-curvature="0"
       id="path8638"
       d="M 386.44353,983.51398 C 571.74601,830.06036 585.58229,740.76898 585.58229,740.76898 555.07998,312.49497 363.03954,220.3655 363.03954,220.3655 c 0,0 -192.04045,92.12947 -223.74925,520.40348 0,0 12.62977,89.29138 197.93226,242.745 z"
       style="fill:#e6e6e6;stroke:#cccccc;stroke-width:0.36191893px;stroke-linecap:butt;stroke-linejoin:miter;stroke-opacity:1"
       sodipodi:nodetypes="ccccc" />
    <path
       sodipodi:nodetypes="ccccc"
       style="fill:#cccccc;stroke:#cccccc;stroke-width:0.10369282px;stroke-linecap:butt;stroke-linejoin:miter;stroke-opacity:1"
       d="m 369.31459,536.86535 c 53.09068,-43.96577 57.05489,-69.54854 57.05489,-69.54854 -8.73915,-122.70399 -63.76037,-149.09989 -63.76037,-149.09989 0,0 -55.02116,26.3959 -64.10605,149.09989 0,0 3.61857,25.58277 56.70925,69.54854 z"
       id="path8650"
       inkscape:connector-curvature="0" />
    <path
       style="fill:#cccccc;stroke:none"
       d="m 307.68237,932.81509 9.15496,-228.23915 c 0,0 -125.62123,163.53559 -128.20938,220.4748 z"
       id="path10659"
       inkscape:connector-curvature="0"
       sodipodi:nodetypes="cccc" />
    <path
       sodipodi:nodetypes="cccc"
       inkscape:connector-curvature="0"
       id="path10663"
       d="m 407.69587,932.81509 -9.15496,-228.23915 c 0,0 125.62123,163.53559 128.20938,220.4748 z"
       style="fill:#cccccc;stroke:none" />
    <rect
       style="fill:#e6e6e6;fill-opacity:1;fill-rule:nonzero;stroke:none"
       id="rect10665"
       width="48.497131"
       height="132.46233"
       x="337.43646"
       y="922.60138"
       ry="66.231163"
       rx="24.248566" />
    <path
       sodipodi:nodetypes="cccc"
       style="fill:#999999;stroke:none"
       d="m 213.77734,896.91724 c 1.31319,97.17415 35.61872,123.85906 35.61872,123.85906 l 73.70052,0.4216 c 0,0 34.14223,-26.26329 35.45542,-123.43744 z"
       id="path10667"
       inkscape:connector-curvature="0" />
    <path
       inkscape:connector-curvature="0"
       id="path10669"
       d="m 260.26553,547.9372 c 0,0 -280.483219,247.72594 -239.536771,477.0261 L 260.26553,889.83998 z"
       style="fill:#b3b3b3;stroke:#b3b3b3;stroke-width:0.36191893px;stroke-linecap:butt;stroke-linejoin:miter;stroke-opacity:1" />
    <path
       inkscape:connector-curvature="0"
       id="path10671"
       d="m 365.78329,896.91724 c 1.31319,97.17415 35.6187,123.85906 35.6187,123.85906 l 73.70053,0.4216 c 0,0 34.14222,-26.26329 35.45541,-123.43744 z"
       style="fill:#999999;stroke:none"
       sodipodi:nodetypes="cccc" />
    <path
       style="fill:#b3b3b3;stroke:#b3b3b3;stroke-width:0.36191893px;stroke-linecap:butt;stroke-linejoin:miter;stroke-opacity:1"
       d="m 472.66315,547.9372 c 0,0 280.48322,247.72594 239.53676,477.0261 L 472.66315,889.83998 z"
       id="path10673"
       inkscape:connector-curvature="0" />
    <path
       style="fill:#b3b3b3;stroke:#b3b3b3;stroke-width:0.12140372px;stroke-linecap:butt;stroke-linejoin:miter;stroke-opacity:1"
       d="m 248.91018,188.18856 c 0,0 -108.27413,63.5164 -109.54178,141.64032 l 87.55129,-29.07884 z"
       id="path10675"
       inkscape:connector-curvature="0" />
    <path
       inkscape:connector-curvature="0"
       id="path10677"
       d="m 479.57218,195.42692 c 0,0 108.27412,63.5164 109.54178,141.64032 L 501.56265,307.9884 z"
       style="fill:#b3b3b3;stroke:#b3b3b3;stroke-width:0.12140372px;stroke-linecap:butt;stroke-linejoin:miter;stroke-opacity:1" />
    <path
       sodipodi:nodetypes="ccccc"
       style="fill:#e6e6e6;stroke:#cccccc;stroke-width:0.40501603px;stroke-linecap:butt;stroke-linejoin:miter;stroke-opacity:1"
       d="M 386.44353,983.51398 C 571.74601,791.33808 585.58229,679.51506 585.58229,679.51506 555.07998,143.17091 363.03954,27.79354 363.03954,27.79354 c 0,0 -192.04045,115.37737 -223.74925,651.72152 0,0 12.62977,111.82302 197.93226,303.99892 z"
       id="path10679"
       inkscape:connector-curvature="0" />
    <path
       inkscape:connector-curvature="0"
       id="path10681"
       d="m 369.31459,363.14424 c 53.09068,-43.96566 57.05489,-69.54843 57.05489,-69.54843 -8.73915,-122.70411 -63.76037,-149.09997 -63.76037,-149.09997 0,0 -55.02116,26.39586 -64.10605,149.09997 0,0 3.61857,25.58277 56.70925,69.54843 z"
       style="fill:#cccccc;stroke:#cccccc;stroke-width:0.10369282px;stroke-linecap:butt;stroke-linejoin:miter;stroke-opacity:1"
       sodipodi:nodetypes="ccccc" />
    <path
       sodipodi:nodetypes="cccc"
       inkscape:connector-curvature="0"
       id="path10683"
       d="m 307.68237,932.81509 9.15496,-228.23915 c 0,0 -125.62123,163.53559 -128.20938,220.4748 z"
       style="fill:#cccccc;stroke:none" />
    <path
       style="fill:#cccccc;stroke:none"
       d="m 407.69587,932.81509 -9.15496,-228.23915 c 0,0 125.62123,163.53559 128.20938,220.4748 z"
       id="path10685"
       inkscape:connector-curvature="0"
       sodipodi:nodetypes="cccc" />
    <rect
       rx="24.248566"
       ry="66.231163"
       y="922.60138"
       x="337.43646"
       height="132.46233"
       width="48.497131"
       id="rect10687"
       style="fill:#e6e6e6;fill-opacity:1;fill-rule:nonzero;stroke:none" />
  </g>
</svg>
