<!-- Generator: Adobe Illustrator 18.1.0, SVG Export Plug-In  -->
<svg version="1.1"
	 xmlns="http://www.w3.org/2000/svg" xmlns:xlink="http://www.w3.org/1999/xlink" xmlns:a="http://ns.adobe.com/AdobeSVGViewerExtensions/3.0/"
	 x="0px" y="0px" width="135.2px" height="102.9px" viewBox="0 0 135.2 102.9" enable-background="new 0 0 135.2 102.9"
	 xml:space="preserve">
<defs>
</defs>
<g>
	<path fill="#FFFFFF" d="M103.8,1.6c-1.1-1.1-2.5-1.6-3.9-1.6H35.3c-1.5,0-2.9,0.6-3.9,1.6L1.6,31.4c-2.2,2.2-2.2,5.7,0,7.9l62,62
		c1.1,1.1,2.5,1.6,3.9,1.6c1.5,0,2.9-0.6,3.9-1.6l62-62c1.1-1.1,1.6-2.5,1.6-3.9c0-1.5-0.6-2.9-1.6-3.9L103.8,1.6z"/>
</g>
<path fill="#48B2E8" d="M67.6,48.2V94c-0.4,0-0.8-0.2-1.1-0.4L44.6,71.6c-0.1-0.1-0.1-0.2-0.2-0.2c0,0,0,0,0-0.1L67.6,48.2z"/>
<path fill="#019CDB" d="M67.6,48.2L44.4,71.3c0-0.1-0.1-0.2-0.1-0.3V27c0-0.7,0.9-1.1,1.4-0.6L67.6,48.2z"/>
<path fill="#288DC1" d="M90.8,71.3C90.7,71.4,90.7,71.4,90.8,71.3c-0.1,0.1-0.1,0.2-0.2,0.3L68.7,93.5c0,0-0.1,0.1-0.1,0.1
	c-0.3,0.2-0.6,0.4-1,0.4V48.2L90.8,71.3z"/>
<path fill="#019CDB" d="M89.4,9.1L68.2,30.3c-0.2,0.2-0.4,0.2-0.6,0.2V7.6h21.2C89.5,7.6,89.9,8.5,89.4,9.1z"/>
<path fill="#48B2E8" d="M67.6,7.6v22.9h0c-0.2,0-0.4-0.1-0.6-0.2L45.8,9c-0.5-0.5-0.1-1.4,0.6-1.4H67.6z"/>
<path fill="#48B2E8" d="M32.1,13.9v42.9c0,0.8-0.9,1.1-1.4,0.6l-20.9-21c0,0-0.1-0.1-0.1-0.1c-0.2-0.3-0.4-0.6-0.4-1
	c0-0.4,0.1-0.7,0.3-1l0.2-0.2l20.9-20.9C31.1,12.7,32.1,13.1,32.1,13.9z"/>
<path fill="#288DC1" d="M103.3,13.9v42.9c0,0.8,0.9,1.1,1.4,0.6l20.9-21c0,0,0.1-0.1,0.1-0.1c0.2-0.3,0.4-0.6,0.4-1
	c0-0.4-0.1-0.7-0.3-1l-0.2-0.2l-20.9-20.9C104.2,12.7,103.3,13.1,103.3,13.9z"/>
<path fill="#48B2E8" d="M90.8,27v44.1c0,0.1,0,0.2-0.1,0.3L67.6,48.2l21.8-21.8C89.9,25.8,90.8,26.2,90.8,27z"/>
</svg>
