<?xml version="1.0" encoding="UTF-8" standalone="no"?>
<!-- Generator: Adobe Illustrator 18.1.0, SVG Export Plug-In  -->

<svg
   xmlns:dc="http://purl.org/dc/elements/1.1/"
   xmlns:cc="http://creativecommons.org/ns#"
   xmlns:rdf="http://www.w3.org/1999/02/22-rdf-syntax-ns#"
   xmlns:svg="http://www.w3.org/2000/svg"
   xmlns="http://www.w3.org/2000/svg"
   xmlns:sodipodi="http://sodipodi.sourceforge.net/DTD/sodipodi-0.dtd"
   xmlns:inkscape="http://www.inkscape.org/namespaces/inkscape"
   version="1.1"
   x="0px"
   y="0px"
   width="135.04999"
   height="162.89999"
   viewBox="0 0 135.04999 162.89999"
   enable-background="new 0 0 135.2 102.9"
   xml:space="preserve"
   id="svg8232"
   inkscape:version="0.48.5 r10040"
   sodipodi:docname="makeschool.svg"><metadata
   id="metadata8258"><rdf:RDF><cc:Work
       rdf:about=""><dc:format>image/svg+xml</dc:format><dc:type
         rdf:resource="http://purl.org/dc/dcmitype/StillImage" /></cc:Work></rdf:RDF></metadata><sodipodi:namedview
   pagecolor="#ffffff"
   bordercolor="#666666"
   borderopacity="1"
   objecttolerance="10"
   gridtolerance="10"
   guidetolerance="10"
   inkscape:pageopacity="0"
   inkscape:pageshadow="2"
   inkscape:window-width="1536"
   inkscape:window-height="814"
   id="namedview8256"
   showgrid="false"
   inkscape:zoom="2.9916057"
   inkscape:cx="24.585199"
   inkscape:cy="87.310184"
   inkscape:window-x="-8"
   inkscape:window-y="-8"
   inkscape:window-maximized="1"
   inkscape:current-layer="svg8232"
   fit-margin-top="30"
   fit-margin-bottom="30"
   fit-margin-left="0"
   fit-margin-right="0" />
<defs
   id="defs8234">
</defs>
<g
   id="g8236"
   transform="translate(0.05,29.999994)">
	<path
   d="M 103.8,1.6 C 102.7,0.5 101.3,0 99.9,0 H 35.3 C 33.8,0 32.4,0.6 31.4,1.6 L 1.6,31.4 c -2.2,2.2 -2.2,5.7 0,7.9 l 62,62 c 1.1,1.1 2.5,1.6 3.9,1.6 1.5,0 2.9,-0.6 3.9,-1.6 l 62,-62 c 1.1,-1.1 1.6,-2.5 1.6,-3.9 0,-1.5 -0.6,-2.9 -1.6,-3.9 L 103.8,1.6 z"
   id="path8238"
   inkscape:connector-curvature="0"
   style="fill:#ffffff" />
</g>
<path
   d="m 67.65,78.199994 v 45.799996 c -0.4,0 -0.8,-0.2 -1.1,-0.4 L 44.65,101.6 c -0.1,-0.1 -0.1,-0.2 -0.2,-0.2 0,0 0,0 0,-0.1 l 23.2,-23.100006 z"
   id="path8240"
   inkscape:connector-curvature="0"
   style="fill:#48b2e8" />
<path
   d="M 67.65,78.199994 44.45,101.3 c 0,-0.1 -0.1,-0.2 -0.1,-0.3 V 56.999994 c 0,-0.7 0.9,-1.1 1.4,-0.6 l 21.9,21.8 z"
   id="path8242"
   inkscape:connector-curvature="0"
   style="fill:#019cdb" />
<path
   d="m 90.85,101.3 c -0.1,0.1 -0.1,0.1 0,0 -0.1,0.1 -0.1,0.2 -0.2,0.3 l -21.9,21.89999 c 0,0 -0.1,0.1 -0.1,0.1 -0.3,0.2 -0.6,0.4 -1,0.4 V 78.199994 L 90.85,101.3 z"
   id="path8244"
   inkscape:connector-curvature="0"
   style="fill:#288dc1" />
<path
   d="m 89.45,39.099994 -21.2,21.2 c -0.2,0.2 -0.4,0.2 -0.6,0.2 v -22.9 h 21.2 c 0.7,0 1.1,0.9 0.6,1.5 z"
   id="path8246"
   inkscape:connector-curvature="0"
   style="fill:#019cdb" />
<path
   d="m 67.65,37.599994 v 22.9 h 0 c -0.2,0 -0.4,-0.1 -0.6,-0.2 l -21.2,-21.3 c -0.5,-0.5 -0.1,-1.4 0.6,-1.4 h 21.2 z"
   id="path8248"
   inkscape:connector-curvature="0"
   style="fill:#48b2e8" />
<path
   d="m 32.15,43.899994 v 42.900002 c 0,0.8 -0.9,1.1 -1.4,0.6 L 9.85,66.399994 c 0,0 -0.1,-0.1 -0.1,-0.1 -0.2,-0.3 -0.4,-0.6 -0.4,-1 0,-0.4 0.1,-0.7 0.3,-1 l 0.2,-0.2 20.9,-20.9 c 0.4,-0.5 1.4,-0.1 1.4,0.7 z"
   id="path8250"
   inkscape:connector-curvature="0"
   style="fill:#48b2e8" />
<path
   d="m 103.35,43.899994 v 42.900002 c 0,0.8 0.9,1.1 1.4,0.6 l 20.9,-21.000002 c 0,0 0.1,-0.1 0.1,-0.1 0.2,-0.3 0.4,-0.6 0.4,-1 0,-0.4 -0.1,-0.7 -0.3,-1 l -0.2,-0.2 -20.9,-20.9 c -0.5,-0.5 -1.4,-0.1 -1.4,0.7 z"
   id="path8252"
   inkscape:connector-curvature="0"
   style="fill:#288dc1" />
<path
   d="M 90.85,56.999994 V 101.1 c 0,0.1 0,0.2 -0.1,0.3 l -23.1,-23.200006 21.8,-21.8 c 0.5,-0.6 1.4,-0.2 1.4,0.6 z"
   id="path8254"
   inkscape:connector-curvature="0"
   style="fill:#48b2e8" />
</svg>