<?xml version="1.0" encoding="UTF-8" standalone="no"?>
<!-- Created with Inkscape (http://www.inkscape.org/) -->

<svg
   xmlns:dc="http://purl.org/dc/elements/1.1/"
   xmlns:cc="http://creativecommons.org/ns#"
   xmlns:rdf="http://www.w3.org/1999/02/22-rdf-syntax-ns#"
   xmlns:svg="http://www.w3.org/2000/svg"
   xmlns="http://www.w3.org/2000/svg"
   xmlns:sodipodi="http://sodipodi.sourceforge.net/DTD/sodipodi-0.dtd"
   xmlns:inkscape="http://www.inkscape.org/namespaces/inkscape"
   width="544.71667"
   height="267.69043"
   id="svg2"
   version="1.1"
   inkscape:version="0.48.5 r10040"
   sodipodi:docname="cloud.svg">
  <defs
     id="defs4">
    <clipPath
       clipPathUnits="userSpaceOnUse"
       id="clipPath4803">
      <rect
         style="fill:#cccccc;fill-opacity:1;fill-rule:nonzero;stroke:none"
         id="rect4805"
         width="435.90005"
         height="343.38284"
         x="62.694016"
         y="141.21736" />
    </clipPath>
    <clipPath
       clipPathUnits="userSpaceOnUse"
       id="clipPath4807">
      <rect
         style="fill:#cccccc;fill-opacity:1;fill-rule:nonzero;stroke:none"
         id="rect4809"
         width="435.90005"
         height="166.42482"
         x="157.38474"
         y="349.10797" />
    </clipPath>
    <clipPath
       clipPathUnits="userSpaceOnUse"
       id="clipPath4811">
      <rect
         style="fill:#cccccc;fill-opacity:1;fill-rule:nonzero;stroke:none"
         id="rect4813"
         width="475.37234"
         height="166.5674"
         x="117.97594"
         y="234.39635" />
    </clipPath>
    <clipPath
       clipPathUnits="userSpaceOnUse"
       id="clipPath4815">
      <rect
         style="fill:#cccccc;fill-opacity:1;fill-rule:nonzero;stroke:none"
         id="rect4817"
         width="506.37488"
         height="182.06204"
         x="120.79424"
         y="323.35635" />
    </clipPath>
    <clipPath
       clipPathUnits="userSpaceOnUse"
       id="clipPath7253">
      <rect
         style="fill:#cccccc;fill-opacity:0.21808514;fill-rule:nonzero;stroke:none"
         id="rect7255"
         width="351.42801"
         height="106.071"
         x="-126.42843"
         y="-257.57101" />
    </clipPath>
    <clipPath
       clipPathUnits="userSpaceOnUse"
       id="clipPath7257">
      <rect
         style="fill:#cccccc;fill-opacity:0.21808514;fill-rule:nonzero;stroke:none"
         id="rect7259"
         width="351.42801"
         height="106.071"
         x="-203.57129"
         y="-386.14243" />
    </clipPath>
    <clipPath
       clipPathUnits="userSpaceOnUse"
       id="clipPath7261">
      <rect
         style="fill:#cccccc;fill-opacity:0.21808514;fill-rule:nonzero;stroke:none"
         id="rect7263"
         width="351.42801"
         height="106.071"
         x="-126.42843"
         y="-257.57101" />
    </clipPath>
    <clipPath
       clipPathUnits="userSpaceOnUse"
       id="clipPath7265">
      <rect
         style="fill:#cccccc;fill-opacity:0.21808514;fill-rule:nonzero;stroke:none"
         id="rect7267"
         width="351.42801"
         height="106.071"
         x="-126.42843"
         y="-257.57101" />
    </clipPath>
    <clipPath
       clipPathUnits="userSpaceOnUse"
       id="clipPath7269">
      <rect
         style="fill:#cccccc;fill-opacity:0.21808514;fill-rule:nonzero;stroke:none"
         id="rect7271"
         width="351.42801"
         height="106.071"
         x="-126.42843"
         y="-257.57101" />
    </clipPath>
    <clipPath
       clipPathUnits="userSpaceOnUse"
       id="clipPath7273">
      <rect
         style="fill:#cccccc;fill-opacity:0.21808514;fill-rule:nonzero;stroke:none"
         id="rect7275"
         width="351.42801"
         height="106.071"
         x="-126.42843"
         y="-257.57101" />
    </clipPath>
    <clipPath
       clipPathUnits="userSpaceOnUse"
       id="clipPath7277">
      <rect
         style="fill:#cccccc;fill-opacity:0.21808514;fill-rule:nonzero;stroke:none"
         id="rect7279"
         width="351.42801"
         height="106.071"
         x="-126.42843"
         y="-257.57101" />
    </clipPath>
    <clipPath
       clipPathUnits="userSpaceOnUse"
       id="clipPath7281">
      <rect
         style="fill:#cccccc;fill-opacity:0.21808514;fill-rule:nonzero;stroke:none"
         id="rect7283"
         width="351.42801"
         height="106.071"
         x="-126.42843"
         y="-257.57101" />
    </clipPath>
  </defs>
  <sodipodi:namedview
     id="base"
     pagecolor="#ffffff"
     bordercolor="#666666"
     borderopacity="1.0"
     inkscape:pageopacity="0.0"
     inkscape:pageshadow="2"
     inkscape:zoom="1.4"
     inkscape:cx="269.36266"
     inkscape:cy="131.60444"
     inkscape:document-units="px"
     inkscape:current-layer="layer1"
     showgrid="false"
     fit-margin-top="0"
     fit-margin-left="0"
     fit-margin-right="0"
     fit-margin-bottom="0"
     inkscape:window-width="1280"
     inkscape:window-height="967"
     inkscape:window-x="1912"
     inkscape:window-y="-8"
     inkscape:window-maximized="1" />
  <metadata
     id="metadata7">
    <rdf:RDF>
      <cc:Work
         rdf:about="">
        <dc:format>image/svg+xml</dc:format>
        <dc:type
           rdf:resource="http://purl.org/dc/dcmitype/StillImage" />
        <dc:title />
      </cc:Work>
    </rdf:RDF>
  </metadata>
  <g
     inkscape:label="Layer 1"
     inkscape:groupmode="layer"
     id="layer1"
     transform="translate(-311.22249,530.82393)">
    <path
       sodipodi:type="arc"
       style="fill:#3d6ff7;fill-opacity:1;fill-rule:nonzero;stroke:none"
       id="path7209"
       sodipodi:cx="-19.642857"
       sodipodi:cy="-152.21428"
       sodipodi:rx="106.78571"
       sodipodi:ry="58.214287"
       d="m -126.42841,-152.31588 c 0.10294,-32.15082 47.9959,-58.16871 106.971931,-58.1126 58.903259,0.056 106.599335,26.10301 106.599336,58.2142 l -106.785714,0 z"
       transform="translate(1097.8337,-188.72081)"
       sodipodi:start="3.143338"
       sodipodi:end="6.2831853"
       clip-path="url(#clipPath7281)" />
    <path
       sodipodi:type="arc"
       style="fill:#3d6ff7;fill-opacity:1;fill-rule:nonzero;stroke:none"
       id="path7215"
       sodipodi:cx="61.785713"
       sodipodi:cy="-193.64285"
       sodipodi:rx="78.928574"
       sodipodi:ry="44.642857"
       d="m -17.14274,-193.72077 c 0.07608,-24.65553 35.47523,-44.6079 79.066211,-44.56487 43.537189,0.043 78.790819,20.01764 78.790819,44.64279 l -78.928577,0 z"
       transform="translate(1072.5799,-200.52691)"
       sodipodi:start="3.143338"
       sodipodi:end="6.2831853"
       clip-path="url(#clipPath7277)" />
    <path
       sodipodi:type="arc"
       style="fill:#3d6ff7;fill-opacity:1;fill-rule:nonzero;stroke:none"
       id="path7219"
       sodipodi:cx="133.92857"
       sodipodi:cy="-151.5"
       sodipodi:rx="91.071426"
       sodipodi:ry="26.071428"
       d="m 42.857286,-151.5455 c 0.08779,-14.39883 40.932955,-26.05102 91.230234,-26.02589 C 184.32274,-177.54629 225,-165.88109 225,-151.5 l -91.07143,0 z"
       transform="translate(1097.8337,-189.41524)"
       sodipodi:start="3.143338"
       sodipodi:end="6.2831853"
       clip-path="url(#clipPath7273)" />
    <path
       sodipodi:type="arc"
       style="fill:#3d6ff7;fill-opacity:1;fill-rule:nonzero;stroke:none"
       id="path7223"
       sodipodi:cx="134.64285"
       sodipodi:cy="-185.42857"
       sodipodi:rx="63.214287"
       sodipodi:ry="36.42857"
       d="m 71.428662,-185.49215 c 0.06093,-20.11892 28.412288,-36.40005 63.324518,-36.36494 34.86916,0.0351 63.10396,16.3344 63.10396,36.42852 l -63.21429,0 z"
       transform="translate(1022.5774,-192.4457)"
       sodipodi:start="3.143338"
       sodipodi:end="6.2831853"
       clip-path="url(#clipPath7269)" />
    <path
       sodipodi:type="arc"
       style="fill:#3d6ff7;fill-opacity:1;fill-rule:nonzero;stroke:none"
       id="path7225"
       sodipodi:cx="-19.285715"
       sodipodi:cy="-200.78571"
       sodipodi:rx="49.285713"
       sodipodi:ry="36.07143"
       d="m -68.571353,-200.84866 c 0.04751,-19.92167 22.151952,-36.04319 49.371658,-36.00842 27.1861197,0.0347 49.199693,16.17426 49.199693,36.07137 l -49.285713,0 z"
       transform="translate(1097.8337,-189.41524)"
       sodipodi:start="3.143338"
       sodipodi:end="6.2831853"
       clip-path="url(#clipPath7265)" />
    <path
       sodipodi:type="arc"
       style="fill:#3d6ff7;fill-opacity:1;fill-rule:nonzero;stroke:none"
       id="path7231"
       sodipodi:cx="41.071426"
       sodipodi:cy="-226.14285"
       sodipodi:rx="54.642857"
       sodipodi:ry="31.428572"
       d="m -13.571347,-226.19771 c 0.05267,-17.35749 24.559774,-31.40396 54.738144,-31.37367 30.141133,0.0303 54.547486,14.09242 54.547486,31.42853 l -54.642857,0 z"
       transform="translate(1036.7195,-186.38478)"
       sodipodi:start="3.143338"
       sodipodi:end="6.2831853"
       clip-path="url(#clipPath7261)" />
    <path
       sodipodi:type="arc"
       style="fill:#3d6ff7;fill-opacity:1;fill-rule:nonzero;stroke:none"
       id="path7235"
       sodipodi:cx="-112.5"
       sodipodi:cy="-326.5"
       sodipodi:rx="58.92857"
       sodipodi:ry="32.5"
       d="m -53.57143,-326.5 c 0,17.94925 -26.38322,32.5 -58.92857,32.5 -32.54535,0 -58.92857,-14.55075 -58.92857,-32.5 0,-17.94925 26.38322,-32.5 58.92857,-32.5 32.54535,0 58.92857,14.55075 58.92857,32.5 z"
       transform="translate(1174.9766,-60.843806)"
       clip-path="url(#clipPath7257)" />
    <path
       sodipodi:type="arc"
       style="fill:#3d6ff7;fill-opacity:1;fill-rule:nonzero;stroke:none"
       id="path7245"
       sodipodi:cx="114.64285"
       sodipodi:cy="-186.5"
       sodipodi:rx="85.35714"
       sodipodi:ry="32.5"
       d="m 199.99999,-186.5 c 0,17.94925 -38.21569,32.5 -85.35714,32.5 -47.141444,0 -85.357137,-14.55075 -85.357137,-32.5 0,-17.94925 38.215693,-32.5 85.357137,-32.5 47.14145,0 85.35714,14.55075 85.35714,32.5 z"
       transform="matrix(1,0,0,0.6270206,1056.4175,-247.35914)"
       clip-path="url(#clipPath7253)" />
    <path
       sodipodi:type="arc"
       style="fill:#d2d2d2;fill-opacity:0.15957444;fill-rule:nonzero;stroke:none"
       id="path6647"
       sodipodi:cx="62.5"
       sodipodi:cy="-198.00974"
       sodipodi:rx="53.92857"
       sodipodi:ry="7.5"
       d="m 8.5715123,-198.02283 c 0.051983,-4.14212 24.2387307,-7.49412 54.0226117,-7.48689 29.74713,0.007 53.834446,3.36296 53.834446,7.49998 l -53.92857,0 z"
       transform="translate(974.50752,-311.78483)"
       sodipodi:start="3.143338"
       sodipodi:end="6.2831853" />
    <path
       sodipodi:type="arc"
       style="fill:#d2d2d2;fill-opacity:0.15957444;fill-rule:nonzero;stroke:none"
       id="path6649"
       sodipodi:cx="135.35715"
       sodipodi:cy="-194.79544"
       sodipodi:rx="64.64286"
       sodipodi:ry="15.714286"
       d="m 70.714385,-194.82287 c 0.06231,-8.67874 29.054375,-15.70198 64.755585,-15.68683 35.65716,0.0151 64.53004,7.04621 64.53004,15.71426 l -64.64286,0 z"
       transform="translate(974.50752,-311.78483)"
       sodipodi:start="3.143338"
       sodipodi:end="6.2831853" />
    <path
       sodipodi:type="arc"
       style="fill:#d2d2d2;fill-opacity:0.15957444;fill-rule:nonzero;stroke:none"
       id="path6651"
       sodipodi:cx="210"
       sodipodi:cy="-200.15259"
       sodipodi:rx="75"
       sodipodi:ry="10.357142"
       d="m 135.00011,-200.17066 c 0.0723,-5.72009 33.7095,-10.34904 75.13079,-10.33905 41.37018,0.01 74.8691,4.64409 74.8691,10.35712 l -75,0 z"
       transform="translate(974.50752,-311.78483)"
       sodipodi:start="3.143338"
       sodipodi:end="6.2831853" />
    <path
       sodipodi:type="arc"
       style="fill:#d2d2d2;fill-opacity:0.15957444;fill-rule:nonzero;stroke:none"
       id="path6653"
       sodipodi:cx="198.57143"
       sodipodi:cy="-206.58116"
       sodipodi:rx="55.714287"
       sodipodi:ry="10.357142"
       d="m 142.85722,-206.59924 c 0.0537,-5.72008 25.04134,-10.34903 55.81145,-10.33905 30.73213,0.01 55.61704,4.64409 55.61704,10.35713 l -55.71428,0 z"
       transform="translate(974.50752,-315.78483)"
       sodipodi:start="3.143338"
       sodipodi:end="6.2831853" />
    <path
       sodipodi:type="arc"
       style="fill:#d2d2d2;fill-opacity:0.15957444;fill-rule:nonzero;stroke:none"
       id="path6655"
       sodipodi:cx="96.428574"
       sodipodi:cy="-240.50974"
       sodipodi:rx="80"
       sodipodi:ry="7.8571429"
       d="m 16.428695,-240.52345 c 0.07711,-4.33937 35.956794,-7.85099 80.139506,-7.84342 44.128199,0.008 79.860369,3.52311 79.860369,7.85713 l -79.999996,0 z"
       transform="translate(974.50752,-311.78483)"
       sodipodi:start="3.143338"
       sodipodi:end="6.2831853" />
    <path
       sodipodi:type="arc"
       style="fill:#d2d2d2;fill-opacity:0.15957444;fill-rule:nonzero;stroke:none"
       id="path6657"
       sodipodi:cx="33.214287"
       sodipodi:cy="-226.93831"
       sodipodi:rx="40.357143"
       sodipodi:ry="9.2857141"
       d="m -7.1427951,-226.95452 c 0.038901,-5.12835 18.1389181,-9.27844 40.4275191,-9.26949 22.261098,0.009 40.286706,4.16367 40.286706,9.2857 l -40.357143,0 z"
       transform="matrix(1,0,0,0.70083944,974.50752,-386.45373)"
       sodipodi:start="3.143338"
       sodipodi:end="6.2831853" />
    <path
       sodipodi:type="arc"
       style="fill:#d2d2d2;fill-opacity:0.15957444;fill-rule:nonzero;stroke:none"
       id="path6659"
       sodipodi:cx="125.71429"
       sodipodi:cy="-259.43829"
       sodipodi:rx="86.428574"
       sodipodi:ry="8.9285717"
       d="m 39.285845,-259.45388 c 0.08331,-4.9311 38.846179,-8.92158 86.579285,-8.91297 47.67422,0.009 86.27773,4.00353 86.27773,8.92856 l -86.42857,0 z"
       transform="translate(974.50752,-297.78483)"
       sodipodi:start="3.143338"
       sodipodi:end="6.2831853" />
    <path
       sodipodi:type="arc"
       style="fill:#d2d2d2;fill-opacity:0.15957444;fill-rule:nonzero;stroke:none"
       id="path6661"
       sodipodi:cx="185.35715"
       sodipodi:cy="-233.72401"
       sodipodi:rx="78.928574"
       sodipodi:ry="10.357142"
       d="m 106.42869,-233.74209 c 0.0761,-5.72008 35.47523,-10.34903 79.06621,-10.33905 43.5372,0.01 78.79082,4.64409 78.79082,10.35713 l -78.92857,0 z"
       transform="translate(974.50752,-311.78483)"
       sodipodi:start="3.143338"
       sodipodi:end="6.2831853" />
    <path
       sodipodi:type="arc"
       style="fill:#d2d2d2;fill-opacity:0.15957444;fill-rule:nonzero;stroke:none"
       id="path6663"
       sodipodi:cx="149.64285"
       sodipodi:cy="-224.43831"
       sodipodi:rx="48.92857"
       sodipodi:ry="7.5"
       d="m 100.71436,-224.4514 c 0.0472,-4.14213 21.99143,-7.49413 49.01389,-7.4869 26.98912,0.007 48.84317,3.36297 48.84317,7.49999 l -48.92857,0 z"
       transform="translate(974.50752,-315.78483)"
       sodipodi:start="3.143338"
       sodipodi:end="6.2831853" />
    <path
       sodipodi:type="arc"
       style="fill:#d2d2d2;fill-opacity:0.15957444;fill-rule:nonzero;stroke:none"
       id="path6665"
       sodipodi:cx="218.57143"
       sodipodi:cy="-259.79544"
       sodipodi:rx="43.571426"
       sodipodi:ry="7.8571429"
       d="m 175.00007,-259.80915 c 0.042,-4.33938 19.58361,-7.851 43.6474,-7.84342 24.03411,0.008 43.49538,3.5231 43.49538,7.85713 l -43.57142,0 z"
       transform="translate(974.50752,-297.78483)"
       sodipodi:start="3.143338"
       sodipodi:end="6.2831853" />
    <path
       sodipodi:type="arc"
       style="fill:#d2d2d2;fill-opacity:0.15957444;fill-rule:nonzero;stroke:none"
       id="path6667"
       sodipodi:cx="93.571426"
       sodipodi:cy="-273.00974"
       sodipodi:rx="69.285713"
       sodipodi:ry="6.7857141"
       d="m 24.285819,-273.02158 c 0.06679,-3.74764 31.14115,-6.7804 69.406535,-6.77386 38.218166,0.007 69.164786,3.04268 69.164786,6.7857 l -69.285714,0 z"
       transform="translate(974.50752,-297.78483)"
       sodipodi:start="3.143338"
       sodipodi:end="6.2831853" />
    <path
       sodipodi:type="arc"
       style="fill:#d2d2d2;fill-opacity:0.15957444;fill-rule:nonzero;stroke:none"
       id="path6669"
       sodipodi:cx="27.857143"
       sodipodi:cy="-250.50974"
       sodipodi:rx="35"
       sodipodi:ry="5.7142859"
       d="m -7.1428033,-250.51971 c 0.033737,-3.15591 15.731097,-5.70981 35.0610333,-5.7043 19.306086,0.006 34.938913,2.56226 34.938913,5.71427 l -35,0 z"
       transform="translate(974.50752,-297.78483)"
       sodipodi:start="3.143338"
       sodipodi:end="6.2831853" />
    <path
       sodipodi:type="arc"
       style="fill:#d2d2d2;fill-opacity:0.15957444;fill-rule:nonzero;stroke:none"
       id="path6671"
       sodipodi:cx="55.357143"
       sodipodi:cy="-250.50974"
       sodipodi:rx="23.214285"
       sodipodi:ry="8.5714283"
       d="m 32.142894,-250.5247 c 0.02238,-4.73386 10.43389,-8.56471 23.254766,-8.55645 12.805056,0.008 23.173768,3.84339 23.173768,8.57141 l -23.214285,0 z"
       transform="translate(974.50752,-297.78483)"
       sodipodi:start="3.143338"
       sodipodi:end="6.2831853" />
    <path
       sodipodi:type="arc"
       style="fill:#d2d2d2;fill-opacity:0.15957444;fill-rule:nonzero;stroke:none"
       id="path6675"
       sodipodi:cx="111.42857"
       sodipodi:cy="-263.72403"
       sodipodi:rx="78.571426"
       sodipodi:ry="13.214286"
       d="m 32.857267,-263.74709 c 0.07574,-7.29804 35.314706,-13.20394 78.708443,-13.19121 43.34019,0.0127 78.43429,5.92523 78.43429,13.21427 l -78.57143,0 z"
       transform="translate(974.50752,-297.78483)"
       sodipodi:start="3.143338"
       sodipodi:end="6.2831853" />
    <path
       sodipodi:type="arc"
       style="fill:#d2d2d2;fill-opacity:0.15957444;fill-rule:nonzero;stroke:none"
       id="path6677"
       sodipodi:cx="138.21428"
       sodipodi:cy="-226.93831"
       sodipodi:rx="72.5"
       sodipodi:ry="9.2857141"
       d="m 65.71439,-226.95452 c 0.06988,-5.12835 32.585843,-9.27844 72.62643,-9.26949 39.99117,0.009 72.37346,4.16367 72.37346,9.2857 l -72.5,0 z"
       transform="translate(974.50752,-315.78483)"
       sodipodi:start="3.143338"
       sodipodi:end="6.2831853" />
    <path
       sodipodi:type="arc"
       style="fill:#d2d2d2;fill-opacity:0.15957444;fill-rule:nonzero;stroke:none"
       id="path6679"
       sodipodi:cx="161.07143"
       sodipodi:cy="-210.86687"
       sodipodi:rx="60.357143"
       sodipodi:ry="16.785715"
       d="m 100.71437,-210.89616 c 0.0582,-9.27048 27.12812,-16.77258 60.4624,-16.7564 33.29315,0.0162 60.2518,7.52664 60.2518,16.78569 l -60.35714,0 z"
       transform="translate(974.50752,-315.78483)"
       sodipodi:start="3.143338"
       sodipodi:end="6.2831853" />
    <path
       sodipodi:type="arc"
       style="fill:#d2d2d2;fill-opacity:0.15957444;fill-rule:nonzero;stroke:none"
       id="path6681"
       sodipodi:cx="237.14285"
       sodipodi:cy="-221.58116"
       sodipodi:rx="40"
       sodipodi:ry="8.2142859"
       d="m 197.14291,-221.5955 c 0.0386,-4.53662 17.9784,-8.20785 40.06976,-8.19993 22.06409,0.008 39.93018,3.68324 39.93018,8.21427 l -40,0 z"
       transform="translate(974.50752,-315.78483)"
       sodipodi:start="3.143338"
       sodipodi:end="6.2831853" />
    <path
       sodipodi:type="arc"
       style="fill:#d2d2d2;fill-opacity:0.15957444;fill-rule:nonzero;stroke:none"
       id="path6683"
       sodipodi:cx="97.142853"
       sodipodi:cy="-204.79544"
       sodipodi:rx="53.571426"
       sodipodi:ry="7.8571429"
       d="m 43.571508,-204.80915 c 0.05164,-4.33938 24.078209,-7.851 53.664845,-7.84342 29.550127,0.008 53.477927,3.5231 53.477927,7.85713 l -53.571427,0 z"
       transform="translate(974.50752,-315.78483)"
       sodipodi:start="3.143338"
       sodipodi:end="6.2831853" />
    <path
       sodipodi:type="arc"
       style="fill:#d2d2d2;fill-opacity:0.15957444;fill-rule:nonzero;stroke:none"
       id="path6685"
       sodipodi:cx="83.928574"
       sodipodi:cy="-220.50974"
       sodipodi:rx="43.214287"
       sodipodi:ry="7.1428571"
       d="m 40.714353,-220.5222 c 0.04165,-3.94489 19.423089,-7.13727 43.289644,-7.13038 23.837103,0.007 43.138863,3.20282 43.138863,7.14284 l -43.214286,0 z"
       transform="translate(974.50752,-315.78483)"
       sodipodi:start="3.143338"
       sodipodi:end="6.2831853" />
    <path
       sodipodi:type="arc"
       style="fill:#d2d2d2;fill-opacity:0.15957444;fill-rule:nonzero;stroke:none"
       id="path6687"
       sodipodi:cx="100.71429"
       sodipodi:cy="-236.93831"
       sodipodi:rx="53.571426"
       sodipodi:ry="6.4285712"
       d="m 47.142942,-236.94953 c 0.05164,-3.5504 24.078209,-6.42354 53.664848,-6.41734 29.55013,0.006 53.47792,2.88254 53.47792,6.42856 l -53.57142,0 z"
       transform="translate(974.50752,-311.78483)"
       sodipodi:start="3.143338"
       sodipodi:end="6.2831853" />
    <path
       sodipodi:type="arc"
       style="fill:#d2d2d2;fill-opacity:0.15957444;fill-rule:nonzero;stroke:none"
       id="path6689"
       sodipodi:cx="182.5"
       sodipodi:cy="-248.00974"
       sodipodi:rx="58.214287"
       sodipodi:ry="8.2142859"
       d="m 124.2858,-248.02407 c 0.0561,-4.53662 26.16499,-8.20786 58.3158,-8.19994 32.11115,0.008 58.11269,3.68325 58.11269,8.21427 l -58.21429,0 z"
       transform="translate(974.50752,-297.78483)"
       sodipodi:start="3.143338"
       sodipodi:end="6.2831853" />
    <path
       sodipodi:type="arc"
       style="fill:#d2d2d2;fill-opacity:0.15957444;fill-rule:nonzero;stroke:none"
       id="path6691"
       sodipodi:cx="111.78571"
       sodipodi:cy="-251.58116"
       sodipodi:rx="63.92857"
       sodipodi:ry="5.3571429"
       d="m 47.857241,-251.59051 c 0.06162,-2.95867 28.733329,-5.35295 64.040049,-5.34779 35.26316,0.005 63.81699,2.40212 63.81699,5.35714 l -63.92857,0 z"
       transform="translate(974.50752,-297.78483)"
       sodipodi:start="3.143338"
       sodipodi:end="6.2831853" />
    <path
       sodipodi:type="arc"
       style="fill:#d2d2d2;fill-opacity:0.15957444;fill-rule:nonzero;stroke:none"
       id="path6693"
       sodipodi:cx="165.71428"
       sodipodi:cy="-274.79544"
       sodipodi:rx="50.714287"
       sodipodi:ry="4.2857141"
       d="m 115.00007,-274.80292 c 0.0489,-2.36693 22.79404,-4.28236 50.80272,-4.27823 27.97413,0.004 50.62578,1.9217 50.62578,4.28571 l -50.71429,0 z"
       transform="translate(974.50752,-297.78483)"
       sodipodi:start="3.143338"
       sodipodi:end="6.2831853" />
    <path
       sodipodi:type="arc"
       style="fill:#d2d2d2;fill-opacity:0.15957444;fill-rule:nonzero;stroke:none"
       id="path6695"
       sodipodi:cx="122.14285"
       sodipodi:cy="-275.15259"
       sodipodi:rx="36.42857"
       sodipodi:ry="6.7857141"
       d="m 85.714338,-275.16443 c 0.03512,-3.74764 16.373182,-6.7804 36.492092,-6.77386 20.09409,0.007 36.36499,3.04268 36.36499,6.7857 l -36.42857,0 z"
       transform="translate(974.50752,-297.78483)"
       sodipodi:start="3.143338"
       sodipodi:end="6.2831853" />
    <path
       sodipodi:type="arc"
       style="fill:#d2d2d2;fill-opacity:0.15957444;fill-rule:nonzero;stroke:none"
       id="path6697"
       sodipodi:cx="193.21428"
       sodipodi:cy="-258.36688"
       sodipodi:rx="32.5"
       sodipodi:ry="5"
       d="m 160.71433,-258.37561 c 0.0313,-2.76142 14.60745,-4.99608 32.55667,-4.99126 17.92708,0.005 32.44328,2.24197 32.44328,4.99999 l -32.5,0 z"
       transform="translate(974.50752,-297.78483)"
       sodipodi:start="3.143338"
       sodipodi:end="6.2831853" />
    <path
       sodipodi:type="arc"
       style="fill:#3d6ff7;fill-opacity:1;fill-rule:nonzero;stroke:none"
       id="path7375"
       sodipodi:cx="-43.436558"
       sodipodi:cy="-223.33691"
       sodipodi:rx="61.619305"
       sodipodi:ry="58.083771"
       d="m 18.182747,-223.33691 c 0,32.07878 -27.5879025,58.08377 -61.619305,58.08377 -34.031402,0 -61.619302,-26.00499 -61.619302,-58.08377 0,-32.07878 27.5879,-58.08377 61.619302,-58.08377 34.0314025,0 61.619305,26.00499 61.619305,58.08377 z"
       transform="matrix(1.0670508,0,0,1.077987,423.32243,-99.166719)" />
    <path
       sodipodi:type="arc"
       style="fill:#3d6ff7;fill-opacity:1;fill-rule:nonzero;stroke:none"
       id="path7377"
       sodipodi:cx="18.182745"
       sodipodi:cy="-252.63133"
       sodipodi:rx="55.558388"
       sodipodi:ry="101.52033"
       d="m 73.741133,-252.63133 a 55.558388,101.52033 0 1 1 -111.116776,0 55.558388,101.52033 0 1 1 111.116776,0 z"
       transform="matrix(1.7534681,0,0,1.1641791,434.48649,-92.263992)" />
    <path
       sodipodi:type="arc"
       style="fill:#3d6ff7;fill-opacity:1;fill-rule:nonzero;stroke:none"
       id="path7379"
       sodipodi:cx="147.98735"
       sodipodi:cy="-270.81409"
       sodipodi:rx="89.398499"
       sodipodi:ry="133.84521"
       d="m 237.38585,-270.81409 a 89.398499,133.84521 0 1 1 -178.796998,0 89.398499,133.84521 0 1 1 178.796998,0 z"
       transform="matrix(1.2485876,0,0,1,396.23673,-126.16463)" />
    <path
       transform="matrix(1.7534681,0,0,1.1641791,671.64134,-92.263992)"
       d="m 73.741133,-252.63133 a 55.558388,101.52033 0 1 1 -111.116776,0 55.558388,101.52033 0 1 1 111.116776,0 z"
       sodipodi:ry="101.52033"
       sodipodi:rx="55.558388"
       sodipodi:cy="-252.63133"
       sodipodi:cx="18.182745"
       id="path7391"
       style="fill:#3d6ff7;fill-opacity:1;fill-rule:nonzero;stroke:none"
       sodipodi:type="arc" />
    <path
       transform="matrix(1.0670508,0,0,1.1130435,836.53725,-89.301097)"
       d="m 18.182747,-223.33691 c 0,32.07878 -27.5879025,58.08377 -61.619305,58.08377 -34.031402,0 -61.619302,-26.00499 -61.619302,-58.08377 0,-32.07878 27.5879,-58.08377 61.619302,-58.08377 34.0314025,0 61.619305,26.00499 61.619305,58.08377 z"
       sodipodi:ry="58.083771"
       sodipodi:rx="61.619305"
       sodipodi:cy="-223.33691"
       sodipodi:cx="-43.436558"
       id="path7393"
       style="fill:#3d6ff7;fill-opacity:1;fill-rule:nonzero;stroke:none"
       sodipodi:type="arc" />
  </g>
</svg>
