<?xml version="1.0" encoding="UTF-8" standalone="no"?>
<!-- Created with Inkscape (http://www.inkscape.org/) -->

<svg
   xmlns:dc="http://purl.org/dc/elements/1.1/"
   xmlns:cc="http://creativecommons.org/ns#"
   xmlns:rdf="http://www.w3.org/1999/02/22-rdf-syntax-ns#"
   xmlns:svg="http://www.w3.org/2000/svg"
   xmlns="http://www.w3.org/2000/svg"
   xmlns:sodipodi="http://sodipodi.sourceforge.net/DTD/sodipodi-0.dtd"
   xmlns:inkscape="http://www.inkscape.org/namespaces/inkscape"
   width="16"
   height="15.99112"
   id="svg13439"
   version="1.1"
   inkscape:version="0.48.5 r10040"
   sodipodi:docname="icon.svg"
   inkscape:export-filename="C:\Users\Brandon\Documents\dev\GitHub\InFuture\images\finallogo.png"
   inkscape:export-xdpi="90"
   inkscape:export-ydpi="90">
  <defs
     id="defs13441" />
  <sodipodi:namedview
     id="base"
     pagecolor="#ffffff"
     bordercolor="#666666"
     borderopacity="1.0"
     inkscape:pageopacity="0.0"
     inkscape:pageshadow="2"
     inkscape:zoom="11.313709"
     inkscape:cx="24.718192"
     inkscape:cy="15.306261"
     inkscape:document-units="px"
     inkscape:current-layer="layer1"
     showgrid="false"
     fit-margin-top="4.18"
     fit-margin-left="0"
     fit-margin-right="0"
     fit-margin-bottom="4.18"
     inkscape:window-width="1536"
     inkscape:window-height="814"
     inkscape:window-x="-8"
     inkscape:window-y="-8"
     inkscape:window-maximized="1" />
  <metadata
     id="metadata13444">
    <rdf:RDF>
      <cc:Work
         rdf:about="">
        <dc:format>image/svg+xml</dc:format>
        <dc:type
           rdf:resource="http://purl.org/dc/dcmitype/StillImage" />
        <dc:title />
      </cc:Work>
    </rdf:RDF>
  </metadata>
  <g
     inkscape:label="Layer 1"
     inkscape:groupmode="layer"
     id="layer1"
     transform="translate(-60.877555,-342.35985)">
    <path
       style="fill:#229aff;fill-opacity:1"
       inkscape:connector-curvature="0"
       id="path5202"
       d="m 68.686978,350.20062 c -0.897836,1.11149 -1.688556,2.02452 -2.201419,2.46228 -0.376522,0.32138 -1.246827,1.01614 -1.99398,1.01614 -1.878918,0 -3.121283,-1.44837 -3.121283,-3.32845 0,-1.87968 1.250498,-3.32085 3.128612,-3.32085 1.400586,0 2.306419,0.74921 2.99161,1.26984 0.678723,0.51571 2.583098,2.03272 2.583098,2.03272 l 0.238867,0.17723 -0.761679,0.91993 0.64626,-0.008 0.810646,-0.98355 c -2.057779,-1.62213 -0.656419,-0.51402 -3.377422,-2.64977 -1.183979,-0.84722 -1.72777,-1.24829 -3.133517,-1.24829 -2.277478,0 -3.619216,1.53666 -3.619216,3.81659 0,2.27963 1.33415,3.81445 3.611791,3.81445 0.700114,0 1.433692,-0.35782 2.180719,-1.02111 0.747028,-0.66329 1.533257,-1.51569 2.398878,-2.64061 z"
       sodipodi:nodetypes="cscccscccccccscccc"
       inkscape:export-filename="C:\Users\Brandon\Documents\dev\GitHub\InFuture\path4078.png"
       inkscape:export-xdpi="90"
       inkscape:export-ydpi="90" />
    <path
       inkscape:export-ydpi="90"
       inkscape:export-xdpi="90"
       inkscape:export-filename="C:\Users\Brandon\Documents\dev\GitHub\InFuture\path4078.png"
       sodipodi:nodetypes="cscccscccccccscccc"
       d="m 69.068131,350.51021 c 0.897837,-1.1115 1.688557,-2.02453 2.20142,-2.46228 0.376522,-0.32139 1.246827,-1.01615 1.99398,-1.01615 1.878918,0 3.121283,1.44837 3.121283,3.32845 0,1.87968 -1.250499,3.32086 -3.128612,3.32086 -1.400587,0 -2.30642,-0.74922 -2.99161,-1.26985 -0.678724,-0.51571 -2.583097,-2.03271 -2.583097,-2.03271 l -0.238866,-0.17724 0.761678,-0.91993 -0.646263,0.008 -0.810645,0.98355 c 2.057782,1.62214 0.65642,0.51403 3.377424,2.64977 1.183978,0.84722 1.727769,1.24829 3.133516,1.24829 2.277477,0 3.619216,-1.53666 3.619216,-3.81659 0,-2.27963 -1.33415,-3.81445 -3.611791,-3.81445 -0.700114,0 -1.433692,0.35782 -2.18072,1.02112 -0.747028,0.66329 -1.533258,1.51568 -2.398876,2.64061 z"
       id="path5204"
       inkscape:connector-curvature="0"
       style="fill:#f2f2f2;fill-opacity:1" />
  </g>
</svg>
