<?xml version="1.0" encoding="UTF-8" standalone="no"?>
<!-- Created with Inkscape (http://www.inkscape.org/) -->

<svg
   xmlns:dc="http://purl.org/dc/elements/1.1/"
   xmlns:cc="http://creativecommons.org/ns#"
   xmlns:rdf="http://www.w3.org/1999/02/22-rdf-syntax-ns#"
   xmlns:svg="http://www.w3.org/2000/svg"
   xmlns="http://www.w3.org/2000/svg"
   xmlns:sodipodi="http://sodipodi.sourceforge.net/DTD/sodipodi-0.dtd"
   xmlns:inkscape="http://www.inkscape.org/namespaces/inkscape"
   width="126.07143"
   height="156.41679"
   id="svg2993"
   version="1.1"
   inkscape:version="0.48.5 r10040"
   sodipodi:docname="New document 3">
  <defs
     id="defs2995">
    <clipPath
       clipPathUnits="userSpaceOnUse"
       id="clipPath3050">
      <rect
         style="fill:#ffffff;fill-opacity:1;stroke:#ffffff;stroke-width:1;stroke-miterlimit:4;stroke-opacity:1;stroke-dasharray:none"
         id="rect3052"
         width="172.85715"
         height="177.14285"
         x="120"
         y="49.505039" />
    </clipPath>
    <clipPath
       clipPathUnits="userSpaceOnUse"
       id="clipPath3058">
      <rect
         style="fill:#ffffff;fill-opacity:1;stroke:#ffffff;stroke-width:1;stroke-miterlimit:4;stroke-opacity:1;stroke-dasharray:none"
         id="rect3060"
         width="126.07143"
         height="156.78572"
         x="136.78571"
         y="56.290756" />
    </clipPath>
  </defs>
  <sodipodi:namedview
     id="base"
     pagecolor="#ffffff"
     bordercolor="#666666"
     borderopacity="1.0"
     inkscape:pageopacity="0.0"
     inkscape:pageshadow="2"
     inkscape:zoom="1.4"
     inkscape:cx="76.367712"
     inkscape:cy="24.76001"
     inkscape:document-units="px"
     inkscape:current-layer="layer1"
     showgrid="false"
     fit-margin-top="0"
     fit-margin-left="0"
     fit-margin-right="0"
     fit-margin-bottom="0"
     inkscape:window-width="1536"
     inkscape:window-height="814"
     inkscape:window-x="-8"
     inkscape:window-y="-8"
     inkscape:window-maximized="1" />
  <metadata
     id="metadata2998">
    <rdf:RDF>
      <cc:Work
         rdf:about="">
        <dc:format>image/svg+xml</dc:format>
        <dc:type
           rdf:resource="http://purl.org/dc/dcmitype/StillImage" />
        <dc:title></dc:title>
      </cc:Work>
    </rdf:RDF>
  </metadata>
  <g
     inkscape:label="Layer 1"
     inkscape:groupmode="layer"
     id="layer1"
     transform="translate(-233.21427,-110.9454)">
    <path
       style="fill:#0f0f0f"
       d="m 22.500001,266.86219 0,-1 487.499999,0 487.5,0 0,1 0,1 -487.5,0 -487.499999,0 0,-1 z M 137.7421,152.19408 138,92.384798 l 30.75078,-17.78123 30.75077,-17.78123 3.74923,1.93405 c 9.39562,4.84676 57.7526,33.29857 58.444,34.38671 l 0.77459,1.21909 0.0153,18.190982 0.0153,18.19099 -0.98815,0.61071 -0.98815,0.61071 -7.26185,-4.26873 c -3.99402,-2.3478 -7.59245,-4.73357 -7.99654,-5.3017 l -0.73465,-1.03296 -0.0153,-8.59501 -0.0153,-8.59502 -1.75,-1.52167 c -0.9625,-0.83692 -10.89653,-6.791752 -22.07561,-13.232962 l -20.32562,-11.71128 -1.44258,0.55357 c -0.79342,0.30447 -10.8844,6.00144 -22.42438,12.65995 l -20.98181,12.106372 0,38.91803 0,38.91802 1.25,-0.02 c 0.6875,-0.011 8.45,-4.17447 17.25,-9.2522 l 16,-9.23224 0.26517,-29.285 0.26517,-29.285 1.32867,-0.50986 1.32866,-0.50985 33.86212,19.57128 c 18.62416,10.76421 34.21255,20.12288 34.64085,20.79706 l 0.77873,1.22578 0.0153,33.75 0.0153,33.75003 -1.51968,0 -1.51969,0 -24.48031,-14.1327 -24.48032,-14.1327 0,-1.26852 0,-1.26853 3.5,-2.06505 3.5,-2.06505 0,-3.97471 0,-3.97471 0.92464,-0.57145 0.92462,-0.57145 11.20493,6.51244 c 6.16271,3.58183 11.82162,6.51243 12.57536,6.51243 l 1.37045,0 0,-13.34501 0,-13.34501 -1.75,-1.52649 c -0.9625,-0.83956 -8.58771,-5.45118 -16.94493,-10.24803 l -15.19494,-8.72156 -1.05506,0.65207 -1.05507,0.65206 0,18.72474 0,18.72474 -33.67187,19.46625 c -18.51954,10.70643 -34.49809,19.6105 -35.5079,19.78683 l -1.83602,0.32058 0.25789,-59.80928 z m 206.42457,59.00144 -0.66667,-0.66666 0.0153,-58.08334 0.0153,-58.083332 0.73468,-1.14599 c 0.57702,-0.90006 49.81309,-29.81265 60.03079,-35.25151 l 2.29611,-1.22221 28.20389,16.23395 c 15.51215,8.92868 29.4414,17.08626 30.9539,18.12796 l 2.75,1.89399 0,18.872892 0,18.87289 -0.7945,0.49103 -0.79451,0.49103 -7.6932,-4.45894 -7.6932,-4.45894 -0.51044,-2.22307 c -0.28075,-1.2227 -0.62378,-5.76753 -0.7623,-10.09964 l -0.25183,-7.87656 -21.47181,-12.373442 c -11.8095,-6.80539 -21.79041,-12.37344 -22.17981,-12.37344 -1.01312,0 -40.99874,23.023782 -43.09838,24.816112 l -1.75,1.49386 0,12.15389 0,12.15388 1.25,1.61644 c 0.6875,0.88904 6.65,4.73818 13.25,8.55365 l 12,6.93721 0.29842,5.02681 0.29843,5.02681 -2.7109,2.1324 c -1.491,1.17282 -3.72884,2.38788 -4.97298,2.70014 l -2.26209,0.56775 -7.0683,-4.1992 -7.06831,-4.1992 -1.50713,0.57834 -1.50714,0.57834 0,13.06277 0,13.06277 1.38492,0.53144 1.38493,0.53145 16.36507,-9.46042 16.36508,-9.46042 0.26488,-29.60241 0.26488,-29.60241 1.15416,0 c 1.13183,0 61.66454,34.51445 67.06608,38.23964 l 2.75,1.89655 0,34.4319 0,34.43191 -1.25,-0.002 c -1.4546,-0.003 -47.58141,-26.46574 -49.62388,-28.46914 l -1.37389,-1.3476 3.61151,-2.3404 3.6115,-2.3404 0.0277,-3.5 0.0277,-3.5 0.8818,-1.39256 0.88181,-1.39255 11.56863,6.64255 c 6.36274,3.65295 12.04639,6.6421 12.63033,6.6421 l 1.0617,0 -0.27745,-14.09921 -0.27746,-14.0992 -16,-9.35239 c -8.8,-5.14381 -16.5625,-9.37416 -17.25,-9.40079 l -1.25,-0.0484 0,18.98746 0,18.98745 -3.75,2.34566 c -9.26067,5.79265 -65.06215,37.67943 -65.93854,37.67943 -0.53796,0 -1.27812,-0.3 -1.64479,-0.66667 z M 547.5,152.43028 l 0,-59.431902 2.75,-1.90691 c 1.51251,-1.0488 15.46529,-9.22501 31.00619,-18.16935 l 28.25619,-16.26243 30.74381,17.71983 c 16.9091,9.7459 31.07442,18.22897 31.4785,18.85125 l 0.73468,1.13142 0,17.500002 0,17.5 -0.8876,1.40195 -0.88761,1.40195 -8.09709,-4.74699 -8.09707,-4.74699 0,-9.33687 0,-9.33686 -2.75,-1.92127 c -4.31115,-3.011972 -41.2993,-24.214922 -42.24247,-24.214922 -0.46454,0 -10.44377,5.57478 -22.17607,12.38839 L 566,102.63897 l -0.26161,39.11161 -0.26159,39.11161 1.03485,0 c 0.56917,0 5.97815,-2.8125 12.01995,-6.25 l 10.9851,-6.25 -0.25834,-1.23661 -0.25835,-1.23661 -7,-4.28483 -7,-4.28482 -0.30507,-5.30974 -0.30508,-5.30974 1.13507,-1.36767 c 0.62428,-0.75222 2.6918,-1.88144 4.59448,-2.50938 l 3.45941,-1.14171 6.78933,4.03347 c 3.73414,2.2184 7.4289,4.17165 8.2106,4.34055 l 1.42125,0.30709 0.5,-23.5 0.5,-23.5 1.6431,0.12107 1.64311,0.12107 33.35689,19.25436 c 18.34631,10.58989 33.68751,19.76041 34.09159,20.37892 l 0.73468,1.12458 0.0153,33.28138 0.0153,33.28139 -1.49835,0.57497 -1.49836,0.57497 -24.25164,-13.99149 c -13.33839,-7.69532 -26.81445,-15.42222 -29.94681,-17.17088 l -5.69518,-3.17938 -2.30482,1.19402 c -1.26765,0.65671 -14.70743,8.33575 -29.86617,17.06452 -15.15874,8.72878 -28.09624,15.8705 -28.74999,15.8705 l -1.18866,0 0,-59.43191 z m 106.77841,14.75789 0.27841,-13.14933 -2.77841,-1.93857 c -5.02368,-3.50514 -30.99368,-18.23808 -32.14858,-18.23808 l -1.12983,0 0,14.04651 0,14.04651 3.08881,1.70349 c 1.69884,0.93692 9.01134,5.17909 16.25,9.42704 L 651,180.8093 l 1.5,-0.2359 1.5,-0.2359 0.27841,-13.14933 z m 100.2369,-14.07598 0.0153,-58.750002 0.7746,-1.21909 c 0.69139,-1.08814 49.04837,-29.53995 58.44399,-34.38671 l 3.74923,-1.93405 30.75077,17.78031 30.75078,17.78031 0.2734,18.457442 0.2734,18.45744 -0.52475,1.36749 -0.52475,1.36748 -6.74865,-3.72481 c -3.71176,-2.04865 -7.53615,-4.40678 -8.49865,-5.2403 l -1.75,-1.51549 0,-9.26303 0,-9.26304 -20.9818,-12.106372 c -11.53996,-6.65851 -21.63094,-12.35548 -22.42435,-12.65995 l -1.44259,-0.55357 -20.32561,11.71128 c -11.17909,6.44121 -21.12529,12.407062 -22.10267,13.257442 l -1.77705,1.54616 0.27705,13.51172 0.27705,13.51171 16.26681,9.40935 16.26681,9.40936 1.48319,-0.56916 1.48318,-0.56915 0,-23.03139 0,-23.03138 1.25,0.0476 c 0.6875,0.0262 16.55,8.91687 35.25,19.75708 l 34,19.70948 0.26296,34.74292 0.26297,34.74292 -1.439,0 -1.43899,0 -17.82396,-10.34079 c -29.02916,-16.8416 -41.06653,-23.65921 -41.77341,-23.65921 -0.36618,0 -13.90202,7.65 -30.07961,17 l -29.41382,17 -1.52856,0 -1.52857,0 0.0153,-58.75 z m 31.52746,21.47357 10.80819,-6.27644 0.35443,-1.0633 0.35443,-1.0633 -11.58446,-6.68556 -11.58447,-6.68557 -0.94544,0.58432 -0.94545,0.58431 0,13.44099 0,13.44098 1.36728,0 c 0.75201,0 6.23097,-2.8244 12.17548,-6.27643 z m 75.45723,-7.63114 0,-13.90757 -16.5719,-9.59243 c -9.11455,-5.27584 -17.00191,-9.59243 -17.52746,-9.59243 l -0.95555,0 0.27745,14.24888 0.27746,14.24888 16,9.23115 c 8.8,5.07713 16.5625,9.24014 17.25,9.25112 l 1.25,0.02 0,-13.90757 z"
       id="path3046"
       inkscape:connector-curvature="0"
       clip-path="url(#clipPath3058)"
       transform="translate(96.428569,54.285714)" />
  </g>
</svg>
