<?xml version="1.0" encoding="UTF-8" standalone="no"?>
<!-- Generator: Adobe Illustrator 18.1.1, SVG Export Plug-In . SVG Version: 6.00 Build 0)  -->

<svg
   xmlns:dc="http://purl.org/dc/elements/1.1/"
   xmlns:cc="http://creativecommons.org/ns#"
   xmlns:rdf="http://www.w3.org/1999/02/22-rdf-syntax-ns#"
   xmlns:svg="http://www.w3.org/2000/svg"
   xmlns="http://www.w3.org/2000/svg"
   xmlns:sodipodi="http://sodipodi.sourceforge.net/DTD/sodipodi-0.dtd"
   xmlns:inkscape="http://www.inkscape.org/namespaces/inkscape"
   version="1.1"
   id="svg13439"
   sodipodi:docname="profilepic.svg"
   inkscape:version="0.48.5 r10040"
   x="0px"
   y="0px"
   viewBox="-3872 4873.8 503.6 503.6"
   enable-background="new -3872 4873.8 475.5 226.8"
   xml:space="preserve"
   width="100%"
   height="100%"
   inkscape:export-filename="C:\Users\Brandon\Documents\dev\GitHub\InFuture\images\profilepic.png"
   inkscape:export-xdpi="90"
   inkscape:export-ydpi="90"><metadata
   id="metadata11"><rdf:RDF><cc:Work
       rdf:about=""><dc:format>image/svg+xml</dc:format><dc:type
         rdf:resource="http://purl.org/dc/dcmitype/StillImage" /><dc:title></dc:title></cc:Work></rdf:RDF></metadata><defs
   id="defs9" /><sodipodi:namedview
   pagecolor="#ffffff"
   bordercolor="#666666"
   borderopacity="1"
   objecttolerance="10"
   gridtolerance="10"
   guidetolerance="10"
   inkscape:pageopacity="0"
   inkscape:pageshadow="2"
   inkscape:window-width="1536"
   inkscape:window-height="814"
   id="namedview7"
   showgrid="false"
   fit-margin-top="0"
   fit-margin-bottom="0"
   fit-margin-left="0"
   fit-margin-right="0"
   inkscape:zoom="0.42530503"
   inkscape:cx="370.7121"
   inkscape:cy="324.16617"
   inkscape:window-x="-8"
   inkscape:window-y="-8"
   inkscape:window-maximized="1"
   inkscape:current-layer="svg13439" />
<rect
   style="fill:#003380;fill-opacity:1;fill-rule:nonzero;stroke:none"
   id="rect3000"
   width="503.60001"
   height="503.60001"
   x="-3872"
   y="4873.7998" /><path
   d="m -3674.6,5175.2504 c -17.2,22.4 -43.2,35.3 -71.5,35.3 -49.6,0 -90,-40.4 -90,-90 0,-49.6 40.4,-90 90,-90 35.7,0 69.6,11.5 97.8,33.2 l 74.9,58.5 -26.6,34.1 h 25.4 l 29.3,-37.5 -90.7,-70.9 c -31.8,-24.5 -69.8,-37.4 -110,-37.4 -60.7,0 -110,49.3 -110,110 0,60.7 49.3,110 110,110 34.5,0 66.3,-15.7 87.3,-43.1 l 47.5,-60.8 4.8,-6.1 -25.3,0 -42.9,54.7 z"
   id="path3"
   inkscape:connector-curvature="0"
   style="fill:#229aff" />
<path
   d="m -3492.3,5010.5504 c -34.5,0 -66.3,15.7 -87.3,43.1 l -46.9,60 -5.4,7 25.3,0 42.8,-54.7 c 17.2,-22.4 43.2,-35.3 71.5,-35.3 49.6,0 90,40.4 90,90 0,49.6 -40.4,90 -90,90 -35.7,0 -69.6,-11.5 -97.8,-33.2 l -74.9,-58.5 26.6,-34.1 h -25.4 l -29.3,37.5 90.7,70.9 c 31.8,24.5 69.8,37.4 110,37.4 60.7,0 110,-49.3 110,-110 0,-60.7 -49.2,-110.1 -109.9,-110.1 z"
   id="path5"
   inkscape:connector-curvature="0"
   style="fill:#f2f2f2" />
</svg>