<?xml version="1.0" encoding="UTF-8" standalone="no"?>
<svg width="377px" height="436px" viewBox="0 0 377 436" version="1.1" xmlns="http://www.w3.org/2000/svg" xmlns:xlink="http://www.w3.org/1999/xlink" xmlns:sketch="http://www.bohemiancoding.com/sketch/ns">
    <!-- Generator: Sketch 3.2.2 (9983) - http://www.bohemiancoding.com/sketch -->
    <title>Final Logo 2</title>
    <desc>Created with Sketch.</desc>
    <defs></defs>
    <g id="Page-1" stroke="none" stroke-width="1" fill="none" fill-rule="evenodd" sketch:type="MSPage">
        <g id="Final-Logo-2" sketch:type="MSLayerGroup">
            <g id="Powerbutton" fill="#000000" sketch:type="MSShapeGroup">
                <path d="M241,67.574283 C241.834188,67.8189275 242.66597,68.0692 243.495302,68.3250565 C320.235728,92.000183 376,163.48787 376,248 C376,351.829533 291.829533,436 188,436 C84.170467,436 0,351.829533 0,248 C0,162.939926 56.4897239,91.0737332 134,67.8705945 L134,133.992371 C89.7100568,154.568747 59,199.448014 59,251.5 C59,323.020875 116.979125,381 188.5,381 C260.020875,381 318,323.020875 318,251.5 C318,198.668071 286.362733,153.225421 241.000004,133.083856 L241,67.574277 Z" id="Oval-2"></path>
                <path d="M154.75,20.2206387 C154.75,-6.0228285 220.25,-6.35104984 220.25,20.2206387 L220.25,254.80341 C220.25,288.130712 154.749999,291.520024 154.75,254.80341 C154.750001,218.086797 154.75,46.464106 154.75,20.2206387 Z" id="Rectangle-6" transform="translate(187.500000, 140.750000) rotate(-180.000000) translate(-187.500000, -140.750000) "></path>
            </g>
            <g id="Earth-Piecies" transform="translate(16.000000, 84.000000)" fill="#FFFFFF" sketch:type="MSShapeGroup">
                <path d="M335.006423,257.709886 C334.045834,257.709884 322.516547,246.404907 329.547269,231.459456 C330.329497,225.209629 326.741913,221.138486 326.741913,221.138486 L319.740525,212.609974 C319.740525,212.609974 318.494293,204.624133 319.117409,204.120129 C319.740525,203.616125 316.602722,198.936088 313.104028,200.305432 C309.605333,201.674776 298.571584,203.083518 297.127849,202.633281 C297.127849,202.633281 304.873884,170.964049 299.411475,141.400966 C310.570674,137.190266 324.10367,140.648071 324.10367,140.648071 C324.10367,140.648071 326.741913,142.598309 326.741913,144.688103 C326.741914,146.777897 328.384144,148.654801 330.62772,149.712587 C332.871296,150.770373 340.248244,153.285505 341.53803,151.802826 C342.827817,150.320148 343.736714,146.470785 346.340735,147.493459 C348.944756,148.516133 352.795008,151.76327 352.795008,151.76327 C352.795008,151.76327 356.57311,152.203918 359.611154,152.203919 C359.611154,155.536355 366.344197,204.120132 335.006423,257.709886 Z" id="Path-7"></path>
                <path d="M295.040352,125.425703 C297.772606,134.59165 298.571094,137.768186 298.901666,139.301392 C299.232239,140.834597 304.399214,133.271389 304.399214,132.763354 C304.399214,132.255318 305.590769,130.048725 306.488472,130.048725 C307.386175,130.048725 311.471569,126.911112 311.471569,125.705484 C314.87903,126.911112 320.088932,124.85662 320.525987,124.057006 C321.730373,124.057006 324.200814,123.927876 324.200814,123.927876 C324.200814,123.927876 329.537779,131.330507 332.224676,131.330506 C332.73002,133.34568 333.079335,134.794669 333.659179,134.794669 C334.239023,134.794669 333.765132,136.143085 333.765132,136.143085 C333.765132,136.143085 331.639452,136.363682 331.639452,136.363682 C331.639452,136.363683 330.797209,137.141361 329.692982,137.14136 C328.588754,137.141359 330.608479,140.260762 332.992006,140.260762 C334.837076,137.702166 336.530254,135.13943 336.530254,135.13943 C336.530254,135.13943 335.618896,133.631671 335.618893,133.197512 C335.618891,132.763353 336.037324,132.028719 336.037324,132.028719 L337.716843,132.788186 L338.338075,132.314296 C338.338075,132.314296 337.177974,129.898073 335.471553,129.898073 C333.765131,129.898073 333.304485,129.322782 333.304485,129.322782 C333.304485,129.322782 327.989874,124.431566 327.989872,123.552903 C327.98987,122.674239 327.193156,119.664928 327.879366,119.664928 C328.565576,119.664928 334.191842,125.425703 335.361047,125.425703 C336.530252,125.425702 341.080848,127.284017 341.080847,128.591045 C341.080847,129.898073 341.052702,131.940563 340.312275,131.940563 C339.571848,131.940563 346.400012,136.799082 346.400013,139.251726 C346.400015,141.70437 347.131336,141.70437 347.131336,141.70437 C347.131336,141.70437 350.333516,138.661536 349.785953,137.512609 C349.23839,136.363682 348.49672,133.439631 347.448367,132.690097 C346.400015,131.940563 350.79623,129.545035 351.744012,130.742799 C352.691793,131.940563 353.722352,132.794809 353.722351,132.794808 C353.722349,132.794808 352.218317,135.668366 353.272051,136.590488 C354.325784,137.512609 357.251365,139.591467 358.341931,139.591467 C358.777547,138.442823 355.04012,112.339063 345.092561,90.584932 C344.199411,94.6761199 344.457268,95.3586745 344.457268,95.3586745 C344.457268,95.3586745 342.122993,98.3634316 337.173835,98.363432 C332.224676,98.3634324 327.374988,100.893885 326.871572,100.383159 C326.368156,99.8724332 326.168808,95.2568603 333.765131,94.4382086 C336.037325,93.119592 335.172318,89.2961829 335.172318,89.2961829 C335.172318,89.2961829 337.384497,84.7377256 338.848387,84.7377256 C340.312277,84.7377255 337.233433,82.0553791 336.635379,82.0553793 C336.037325,82.0553795 336.285652,76.1683723 337.859217,76.1683722 C339.432783,76.1683721 330.303452,62.45989 330.303452,62.45989 C330.303452,62.45989 328.853636,62.6809011 328.853636,63.5227299 C328.853636,64.3645587 329.381331,66.5775668 328.126452,66.5775668 C326.871572,68.0087587 319.399825,75.5359653 318.038164,75.5359659 C316.676504,75.5359665 317.48605,77.8549269 317.48605,77.8549269 C317.48605,77.8549269 316.529163,83.1091124 314.656363,83.1091138 C312.783563,83.1091153 314.104248,87.9307968 315.392652,87.9307972 C316.681057,87.9307976 321.387682,86.6978549 322.928966,87.3232247 C324.47025,87.9485944 323.325875,93.0715821 323.325875,93.0715821 C323.325875,93.0715821 317.012988,103.132968 315.259798,103.132967 C313.506609,103.132967 307.934563,108.886706 307.934563,109.507936 C307.934563,110.129166 304.631813,100.38316 303.549935,100.383157 C302.468057,100.383155 298.732803,94.5648553 298.732804,93.8182188 C298.732804,93.0715824 300.462816,89.6773655 298.732804,89.1943688 C297.002792,88.711372 291.523041,89.2266521 290.800409,90.2572086 C290.077778,91.2877652 291.692731,93.4271037 291.692731,93.4271037 C291.692731,93.4271037 288.458271,100.028881 286.810621,99.4767662 C285.148071,100.028879 285.458066,103.78317 286.079298,103.78317 C286.700529,103.78317 293.530765,105.778479 294.046044,99.4767662 C296.765226,96.9301697 297.772606,97.9975635 297.772606,97.9975635 C297.772606,97.9975635 300.248426,100.447312 299.010516,101.26472 C297.772606,102.082128 294.767848,104.674249 294.767848,105.405988 C294.767848,106.137726 294.459096,108.762955 300.942501,109.507936 C307.425907,110.252917 299.010516,113.383909 297.127783,114.924364 C295.211526,117.538835 300.838617,119.958782 300.838617,119.958782 C300.838617,119.958782 300.12609,125.425703 295.040352,125.425703 Z" id="Path-8"></path>
                <path d="M204.253908,4.50384522 L204.253908,53.8253785 C204.253908,53.8253785 199.333507,49.0872378 199.333507,46.650876 C199.333506,44.2145142 202.103683,34.6818447 196.13222,32.5626823 C190.160756,30.44352 180.126576,30.4435206 180.126576,30.4435206 C180.126576,30.4435206 172.425123,25.1474766 170.104222,25.1474766 C166.372655,25.1474766 167.879942,22.1448972 167.879942,22.1448972 C167.879942,22.1448972 176.88368,18.3070476 182.543,17.3851505 C188.20232,16.4632534 184.008051,15.6745245 185.776136,13.796516 C187.544222,11.9185075 199.433647,4.17650858 204.253908,4.50384522 Z" id="Path-9"></path>
                <path d="M190.992203,193.572204 C189.54501,192.322794 187.589917,191.119276 177.333435,191.119276 C172.413033,189.299954 165.694215,190.169017 165.694215,190.169017 C165.694215,190.169017 159.699762,192.075559 160.691644,194.244112 C159.699762,194.666698 158.650171,194.516016 158.650171,194.516016 C158.650171,194.516016 158.392367,194.0337 157.957009,194.0337 C157.521651,194.033701 153.218603,193.537405 153.630384,194.244112 C168.64825,199.749609 185.279685,196.187617 190.992203,193.572204 Z" id="Path-10"></path>
                <path d="M224.865735,49.1267564 C224.865735,49.1267564 245.306018,59.8417489 245.80079,60.8064595 C246.295562,61.77117 262.854434,56.7654345 261.951956,55.25508 C261.049478,53.7447255 261.146481,42.690108 263.078614,41.73949 C265.010748,40.788872 268.070258,34.6612293 268.070257,33.1357859 C268.070257,31.6103425 264.315206,21.2584485 268.070257,18.8204696 C271.825307,16.3824908 280.775388,11.4936792 279.505021,10.2154105 C278.234655,8.9371418 274.876189,8.7895909 274.876189,8.7895909 C274.876189,8.7895909 252.382167,3.85116604 249.505121,0.393110461 C241.960832,0.393110461 224.865735,0.309074257 224.865735,2.07876476 C224.865735,3.84845526 224.865735,49.1267564 224.865735,49.1267564 Z" id="Path-11"></path>
                <path d="M147.973242,191.616029 C148.495904,190.23042 148.183816,185.610522 149.202895,185.610522 C150.221974,185.610522 148.471613,180.977739 146.596704,181.931874 C144.721795,182.88601 140.484456,181.827342 140.484456,181.827342 L139.480081,181.827342 C139.480081,181.827342 140.610413,187.317759 147.973242,191.616029 Z" id="Path-12"></path>
                <path d="M138.939619,179.508134 C140.036496,179.617859 143.328507,172.149891 142.563063,171.69558 C141.797619,171.241268 138.722878,171.415729 138.722878,171.415729 C138.722878,171.415729 138.554822,178.509843 138.939619,179.508134 Z" id="Path-13"></path>
                <path d="M146.362319,169.510649 C146.362319,169.510649 147.283113,166.957645 151.465334,167.203374 C155.647556,167.449103 160.100817,170.631154 160.100817,170.631154 C160.100817,170.631154 165.136879,174.124967 166.380018,173.493159 C166.711958,173.324454 167.276041,173.238725 167.924626,173.203687 C169.705035,173.107505 172.122204,173.393303 172.122204,173.393303 C172.122204,173.393303 175.64639,174.707767 175.255248,175.897068 C174.864106,177.086368 179.32519,175.897068 179.752454,175.897068 C180.179717,175.897068 181.839537,176.866178 181.246154,177.354875 C180.65277,177.843572 177.83402,177.500518 177.83402,177.500518 C177.83402,177.500518 175.317139,176.600433 174.956369,177.050475 C174.595599,177.500517 172.099427,179.309432 170.935435,178.572706 C169.771443,177.835979 166.653356,175.621198 167.134461,174.871587 C165.935958,174.871587 158.099324,174.714901 157.73096,173.443691 C157.362597,172.172481 152.382216,168.100469 149.182909,169.226036 C145.983602,170.351603 146.362319,169.510649 146.362319,169.510649 Z" id="Path-14"></path>
                <path d="M138.736874,152.815143 C138.736874,152.815143 144.769197,151.59015 146.342137,154.195957 C147.915077,156.801764 153.126691,163.730827 153.126691,163.730827 C153.126691,163.730827 156.991118,161.743342 156.054478,161.154654 C155.117839,160.565966 154.147904,159.884714 154.147904,159.884714 C154.147904,159.884714 152.793057,156.993887 154.147904,156.993887 C155.502751,156.993886 156.753711,157.589566 156.753711,156.316297 C156.753711,155.043028 153.407384,155.005069 153.407383,153.891625 C153.407383,152.77818 152.349212,148.558478 154.551461,147.877225 C156.753711,147.195973 164.079004,140.869583 163.279549,137.023803 C162.480094,133.178024 169.131793,130.775993 169.131793,130.775993 C169.131793,130.775993 172.844384,123.966134 177.797283,123.573897 C182.750182,123.181661 187.766008,123.085766 187.410733,121.638355 C187.055457,120.190943 179.830385,117.470596 182.321318,116.204318 C184.812251,114.938041 191.056731,108.045939 191.056731,108.045939 C191.056731,108.045939 194.103053,108.453158 194.103055,109.904233 C194.103057,111.355307 193.16009,115.745822 194.492629,115.745822 C195.825168,115.745821 200.749964,116.184866 204.266438,115.167316 L204.266438,112.414577 C204.266438,112.414577 199.333648,108.956939 199.333648,106.36545 C199.333648,103.77396 191.990039,93.5361962 190.716771,92.1074305 C189.443503,90.6786648 184.087378,88.0289068 184.08738,85.2859168 C184.087382,82.5429268 178.254114,88.5466716 177.75433,88.5466716 C177.254546,88.5466717 175.248081,88.0728582 175.248081,87.3916059 C175.24808,86.7103536 174.554841,77.8494111 164.351373,76.6094389 C158.718888,77.3013463 157.834191,85.6292063 158.633647,85.6292067 C159.433103,85.6292071 162.071874,92.2952245 161.331687,94.6902628 C160.5915,97.0853011 156.209308,100.478909 156.753711,100.982024 C157.298114,101.485139 156.154369,107.822184 155.352915,107.822184 C154.551461,107.822185 150.277152,103.472957 148.309645,97.9833153 C144.603712,97.9833155 142.252625,96.9827467 142.252625,96.9827467 C142.252625,96.9827467 138.736874,95.7675487 138.736874,94.9491129 C138.736874,94.1306771 138.736874,152.815143 138.736874,152.815143 Z" id="Path-15"></path>
                <path d="M138.818856,7.8724509 C138.830974,28.2456757 138.830974,73.8653751 138.830974,73.8653751 C138.830974,73.8653751 147.830615,81.9331843 149.339239,76.4379128 C150.847863,70.9426413 149.072654,58.2786788 152.654577,58.2786803 C156.236501,58.2786818 163.199197,60.0029936 168.158874,60.0029955 C173.11855,60.0029975 164.282497,66.0229503 164.282497,67.5194589 C164.282497,69.0159674 163.24524,73.3394776 170.075856,73.3394771 C177.364511,76.4379111 175.449952,77.6496593 175.449952,77.6496593 C175.449952,77.6496593 182.954298,79.0468034 182.954298,76.19314 C182.954297,73.3394767 175.036077,66.0451527 177.689801,66.0451499 C180.343526,66.045147 183.536969,65.301233 183.536969,65.301233 C183.536969,65.301233 185.618234,64.7894816 183.546014,63.2810929 C181.473794,61.7727042 177.314321,55.0429931 176.988645,53.9234861 C176.662969,52.803979 174.300789,48.3630292 167.362417,47.0467867 C163.791554,46.3693768 157.630641,40.7460024 156.560012,35.8184252 C155.550353,31.171464 159.249495,26.3045263 161.072024,24.6141864 C163.265123,18.7031527 179.067443,11.7316132 179.067443,11.7316132 C179.067443,11.7316132 187.134847,6.88409929 185.772554,6.07960659 C184.41026,5.27511389 183.288906,2.27642561 171.511516,3.85498557 C159.734126,5.43354553 152.654577,3.85498541 138.818856,7.8724509 Z" id="Path-16"></path>
                <path d="M0.135659554,87.6066771 C0.135659554,87.6066771 31.1069427,79.0021823 39.4118845,83.2384149 C47.7168264,87.4746475 49.6787389,91.2451277 61.0187368,101.132253 C91.3078092,61.887435 114.87716,50.9918032 118.178781,50.1013995 C118.178781,39.8825789 117.846442,22.6426192 117.846442,22.6426192 C117.846442,22.6426192 102.4656,24.5972857 89.7200147,29.3641388 C72.9454311,39.059441 64.4150646,54.5061561 62.7169007,54.5061561 C61.0187368,54.506156 52.1653304,59.4939422 21.2851228,51.4574919 C8.34576259,68.6322546 0.135659554,87.6066771 0.135659554,87.6066771 Z" id="Path-17"></path>
                <path d="M165.983644,296.859748 C174.171508,296.859748 180.20034,296.621138 183.411768,296.621138 C184.347147,298.488856 179.181061,302.653433 179.181061,302.653433 C179.181061,302.653433 178.043742,304.527266 180.677294,307.20445 C179.181061,311.309458 177.499167,315.37796 176.042771,315.377961 C174.586376,315.377962 175.771692,323.380099 180.677294,323.380099 C185.582896,323.380099 184.347147,326.910362 184.347147,326.114573 C184.347147,325.318785 170.255155,326.917219 166.721776,321.893839 C163.188397,316.870459 163.014653,316.057997 163.014653,310.463792 C163.014653,304.869587 164.79019,303.346252 165.983644,296.859748 Z" id="Path-18"></path>
            </g>
        </g>
    </g>
</svg>